<?xml version="1.0" encoding="UTF-8"?>
<svg width="180px" height="47px" viewBox="0 0 180 47" version="1.1" xmlns="http://www.w3.org/2000/svg" xmlns:xlink="http://www.w3.org/1999/xlink">
    <!-- Generator: Sketch 54.1 (76490) - https://sketchapp.com -->
    <title>campaigns logo</title>
    <desc>Created with Sketch.</desc>
    <g id="Page-1" stroke="none" stroke-width="1" fill="none" fill-rule="evenodd">
        <g id="Fundraising" transform="translate(-630.000000, -194.000000)" fill="#D24698">
            <g id="headline" transform="translate(399.000000, 190.000000)">
                <g id="campaigns-logo" transform="translate(231.000000, 4.000000)">
                    <path d="M0,14.1376734 C0,6.02209531 6.27385892,0.514282812 13.6687967,0.514282812 C21.6239004,0.514282812 25.1342739,5.54475156 25.993195,9.29006406 L20.4288797,11.0165797 C20.0173444,9.21662656 18.3368465,6.16897031 13.6687967,6.16897031 C10.1210788,6.16897031 6.12448133,8.66584531 6.12448133,14.1376734 C6.12448133,19.0212672 9.78497925,21.8486109 13.7434855,21.8486109 C18.3368465,21.8486109 20.166722,18.8376734 20.6902905,16.9650172 L26.3292946,18.5439234 C25.4703734,22.1423609 21.9592531,27.6509078 13.7434855,27.6509078 C6.12448133,27.6509078 0,22.2525172 0,14.1376734" id="Fill-1"></path>
                    <path d="M38.1664232,19.9395297 L38.1664232,19.1317172 L34.6560498,19.6824984 C33.461029,19.8660922 32.5647635,20.4168734 32.5647635,21.7020297 C32.5647635,22.6567172 33.1996183,23.5746859 34.768083,23.5746859 C36.4485809,23.5746859 38.1664232,22.7668734 38.1664232,19.9395297 M32.4527303,16.5606703 L36.8220249,15.9004672 C37.8310705,15.7528578 38.1664232,15.2755141 38.1664232,14.6512953 C38.1664232,13.5864516 37.2328133,12.6684828 35.441029,12.6684828 C33.461029,12.6684828 32.3780415,13.9903578 32.2660083,15.3496859 L27.3365477,14.3575453 C27.5606141,11.7505141 30.0253444,8.29895156 35.4776266,8.29895156 C41.4908216,8.29895156 43.6941411,11.6036391 43.6941411,15.3496859 L43.6941411,24.2723422 C43.6941411,25.7051078 43.8808631,26.9160922 43.9182075,27.0996859 L38.8020249,27.0996859 C38.7646805,26.9528109 38.6153029,26.2918734 38.6153029,25.0434359 C37.6443485,26.5856234 35.8510705,27.6144828 33.3863402,27.6144828 C29.3158008,27.6144828 26.9631037,24.9699984 26.9631037,22.0692172 C26.9631037,18.8379672 29.3904896,17.0020297 32.4527303,16.5606703" id="Fill-3"></path>
                    <path d="M46.231917,27.1000531 L46.231917,8.84936562 L51.6468548,8.84936562 L51.6468548,10.9430688 C52.5804647,9.32670937 54.9705062,8.29858437 56.9871037,8.29858437 C59.6393029,8.29858437 61.5438672,9.3641625 62.4774772,11.1633813 C63.9339087,9.10713125 65.7271867,8.29858437 68.2285145,8.29858437 C71.738888,8.29858437 75.1006307,10.3181156 75.1006307,15.2758813 L75.1006307,27.1000531 L69.6110041,27.1000531 L69.6110041,16.5243188 C69.6110041,14.7985375 68.6773942,13.4399438 66.6607967,13.4399438 C64.6434523,13.4399438 63.5604647,14.9454125 63.5604647,16.5610375 L63.5604647,27.1000531 L57.9580581,27.1000531 L57.9580581,16.5243188 C57.9580581,14.7985375 57.0244481,13.4399438 54.9705062,13.4399438 C52.9912531,13.4399438 51.9082656,14.9454125 51.9082656,16.5977563 L51.9082656,27.1000531 L46.231917,27.1000531 Z" id="Fill-5"></path>
                    <path d="M86.6761992,13.4398703 C84.4728797,13.4398703 82.4928797,14.9086203 82.4928797,17.9562766 C82.4928797,20.9672141 84.4728797,22.5101359 86.6761992,22.5101359 C88.9168631,22.5101359 90.8961162,21.0046672 90.8961162,17.9562766 C90.8961162,14.9086203 88.9168631,13.4398703 86.6761992,13.4398703 L86.6761992,13.4398703 Z M76.8912199,34.0772766 L76.8912199,8.85002656 L82.3808465,8.85002656 L82.3808465,10.7226828 C83.1658257,9.54768281 85.1824232,8.40866719 87.8338755,8.40866719 C93.2114689,8.40866719 96.4611784,12.4484641 96.4611784,17.9195578 C96.4611784,23.5015422 92.8006805,27.5038859 87.6098091,27.5038859 C85.2197676,27.5038859 83.4264896,26.6960734 82.5675685,25.6679484 L82.5675685,34.0772766 L76.8912199,34.0772766 Z" id="Fill-7"></path>
                    <path d="M108.708647,19.9395297 L108.708647,19.1317172 L105.198274,19.6824984 C104.003253,19.8660922 103.106988,20.4168734 103.106988,21.7020297 C103.106988,22.6567172 103.741842,23.5746859 105.310307,23.5746859 C106.990805,23.5746859 108.708647,22.7668734 108.708647,19.9395297 M102.994954,16.5606703 L107.364249,15.9004672 C108.373295,15.7528578 108.708647,15.2755141 108.708647,14.6512953 C108.708647,13.5864516 107.775037,12.6684828 105.983253,12.6684828 C104.003253,12.6684828 102.920266,13.9903578 102.808232,15.3496859 L97.8787718,14.3575453 C98.1028382,11.7505141 100.567568,8.29895156 106.019851,8.29895156 C112.033046,8.29895156 114.236365,11.6036391 114.236365,15.3496859 L114.236365,24.2723422 C114.236365,25.7051078 114.423087,26.9160922 114.460432,27.0996859 L109.344249,27.0996859 C109.306905,26.9528109 109.157527,26.2918734 109.157527,25.0434359 C108.186573,26.5856234 106.393295,27.6144828 103.928564,27.6144828 C99.857278,27.6144828 97.5053278,24.9699984 97.5053278,22.0692172 C97.5053278,18.8379672 99.9327137,17.0020297 102.994954,16.5606703" id="Fill-9"></path>
                    <path d="M116.401743,27.1004203 L122.078091,27.1004203 L122.078091,8.84973281 L116.401743,8.84973281 L116.401743,27.1004203 Z M119.202573,-0.0002203125 C121.069793,-0.0002203125 122.563568,1.46852969 122.563568,3.26774844 C122.563568,5.06770156 121.069793,6.53645156 119.202573,6.53645156 C117.409295,6.53645156 115.915519,5.06770156 115.915519,3.26774844 C115.915519,1.46852969 117.409295,-0.0002203125 119.202573,-0.0002203125 L119.202573,-0.0002203125 Z" id="Fill-11"></path>
                    <path d="M137.501029,17.4423609 C137.501029,14.9454859 135.671154,13.4032984 133.541776,13.4032984 C131.413892,13.4032984 129.545925,14.9454859 129.545925,17.4423609 C129.545925,19.9392359 131.263768,21.4814234 133.541776,21.4814234 C135.857876,21.4814234 137.501029,19.9392359 137.501029,17.4423609 L137.501029,17.4423609 Z M128.873726,26.7329391 C129.24717,28.4954391 130.740946,29.7805953 132.869577,29.7805953 C135.708498,29.7805953 137.462938,28.4220016 137.462938,25.1173141 L137.462938,24.2727828 C136.791485,25.2641891 135.184929,26.3290328 132.496133,26.3290328 C127.566672,26.3290328 123.869577,22.5095484 123.869577,17.4423609 C123.869577,12.6322047 127.417295,8.51897031 132.496133,8.51897031 C135.521776,8.51897031 137.127585,9.84084531 137.64966,10.7962672 L137.64966,8.84943906 L143.065344,8.84943906 L143.065344,24.8235641 C143.065344,30.0743453 140.077793,34.6274703 133.130988,34.6274703 C127.790739,34.6274703 124.391651,31.3962203 123.869577,28.1282516 L128.873726,26.7329391 Z" id="Fill-13"></path>
                    <path d="M151.279842,27.1000531 L145.603494,27.1000531 L145.603494,8.84936562 L151.09312,8.84936562 L151.09312,10.9430688 C152.102166,9.21655312 154.379427,8.37275625 156.284739,8.37275625 C160.952788,8.37275625 163.044075,11.640725 163.044075,15.6430688 L163.044075,27.1000531 L157.367726,27.1000531 L157.367726,16.5977563 C157.367726,14.7985375 156.396772,13.4399438 154.34283,13.4399438 C152.47561,13.4399438 151.279842,14.7985375 151.279842,16.634475 L151.279842,27.1000531 Z" id="Fill-14"></path>
                    <path d="M168.868905,21.0776641 C168.94434,22.3261016 169.840606,23.5385547 171.781768,23.5385547 C173.238946,23.5385547 173.94849,22.7667266 173.94849,21.9589141 C173.94849,21.2979766 173.500357,20.7471953 172.118614,20.4534453 L169.989983,19.9761016 C166.03073,19.1315703 164.463012,16.9284453 164.463012,14.3581328 C164.463012,11.0159922 167.450564,8.29880469 171.595046,8.29880469 C176.974133,8.29880469 178.841353,11.6042266 179.028075,13.7339141 L174.321934,14.5777109 C174.172556,13.3667266 173.388324,12.3386016 171.670481,12.3386016 C170.587494,12.3386016 169.653884,12.9628203 169.653884,13.9175078 C169.653884,14.6886016 170.287992,15.1292266 171.110315,15.2761016 L173.575046,15.7534453 C177.421519,16.5245391 179.288739,18.8011016 179.288739,21.4815703 C179.288739,24.6026641 176.861353,27.6510547 171.894548,27.6510547 C166.068075,27.6510547 164.200855,23.9417266 164.051477,21.9221953 L168.868905,21.0776641 Z" id="Fill-15"></path>
                    <path d="M101.27771,41.5781828 C100.7041,41.5781828 100.179037,41.9505109 100.179037,42.7539172 C100.179037,43.5374953 100.7041,43.9391984 101.27771,43.9391984 C101.85132,43.9391984 102.366672,43.5470422 102.366672,42.7539172 C102.366672,41.9505109 101.85132,41.5781828 101.27771,41.5781828 L101.27771,41.5781828 Z M98.7502407,45.1340266 L98.7502407,38.2132766 L100.198456,38.2132766 L100.198456,40.8327922 C100.403104,40.5361047 100.937129,40.2687922 101.598124,40.2687922 C102.998539,40.2687922 103.844017,41.3196828 103.844017,42.7443703 C103.844017,44.1969641 102.891734,45.2390422 101.539867,45.2390422 C100.89829,45.2390422 100.403104,44.9614484 100.179037,44.5986672 L100.179037,45.1340266 L98.7502407,45.1340266 Z" id="Fill-16"></path>
                    <polygon id="Fill-17" points="104.696365 46.9593891 105.795037 44.4933578 103.762755 40.3830609 105.415618 40.3830609 106.591967 42.9254672 107.66151 40.3830609 109.226241 40.3830609 106.252133 46.9593891"></polygon>
                    <path d="M114.510174,41.3102828 C115.142041,41.3102828 115.482622,40.9665953 115.482622,40.4885172 C115.482622,39.9817984 115.142041,39.6667516 114.510174,39.6667516 L113.60644,39.6667516 L113.60644,41.3102828 L114.510174,41.3102828 Z M114.150921,42.6108609 L113.60644,42.6108609 L113.60644,45.1341734 L112.070091,45.1341734 L112.070091,38.3573609 L114.802207,38.3573609 C116.163037,38.3573609 117.037643,39.2745953 117.037643,40.4789703 C117.037643,41.3962047 116.52229,42.0938609 115.676813,42.3905484 L117.077228,45.1341734 L115.38478,45.1341734 L114.150921,42.6108609 Z" id="Fill-18"></path>
                    <path d="M120.825934,42.1899172 C120.806515,41.8264016 120.554066,41.3872453 119.853485,41.3872453 C119.231328,41.3872453 118.920622,41.8366828 118.891494,42.1899172 L120.825934,42.1899172 Z M122.167344,43.7666203 C121.934315,44.5891203 121.166515,45.2772297 119.940871,45.2772297 C118.60917,45.2772297 117.423112,44.3409016 117.423112,42.7443703 C117.423112,41.2146672 118.580041,40.2401516 119.834066,40.2401516 C121.331577,40.2401516 122.25473,41.1478391 122.25473,42.6775422 C122.25473,42.8780266 122.235311,43.0976047 122.226349,43.1262453 L118.862365,43.1262453 C118.891494,43.6616047 119.387427,44.0442141 119.961037,44.0442141 C120.495809,44.0442141 120.796805,43.7959953 120.932739,43.4229328 L122.167344,43.7666203 Z" id="Fill-19"></path>
                    <path d="M125.635071,43.2699625 L125.635071,43.0599313 L124.72088,43.2031344 C124.410174,43.2508688 124.177145,43.3940719 124.177145,43.7289469 C124.177145,43.9771656 124.342207,44.2165719 124.750008,44.2165719 C125.187685,44.2165719 125.635071,44.0058063 125.635071,43.2699625 M124.148017,42.3909156 L125.285527,42.2183375 C125.547685,42.18015 125.635071,42.0560406 125.635071,41.8937438 C125.635071,41.6168844 125.392332,41.3774781 124.925527,41.3774781 C124.410174,41.3774781 124.127851,41.7219 124.098722,42.0751344 L122.816315,41.8166344 C122.874573,41.1388063 123.516149,40.2399313 124.935237,40.2399313 C126.500714,40.2399313 127.073577,41.0998844 127.073577,42.0751344 L127.073577,44.3979625 C127.073577,44.7702906 127.122871,45.0860719 127.131834,45.1338063 L125.800133,45.1338063 C125.790423,45.0956188 125.751585,44.923775 125.751585,44.5984469 C125.499137,45.00015 125.032332,45.2674625 124.390755,45.2674625 C123.331668,45.2674625 122.718473,44.5793531 122.718473,43.8244156 C122.718473,42.9828219 123.35034,42.5054781 124.148017,42.3909156" id="Fill-20"></path>
                    <polygon id="Fill-21" points="128.121162 45.1337328 129.599253 45.1337328 129.599253 38.2137172 128.121162 38.2137172"></polygon>
                    <polygon id="Fill-22" points="136.089336 39.8003344 136.089336 45.1341 134.553734 45.1341 134.553734 39.8003344 132.434066 39.8003344 132.434066 38.3572875 138.218714 38.3572875 138.218714 39.8003344"></polygon>
                    <path d="M140.382822,45.1338797 L138.90473,45.1338797 L138.90473,38.2138641 L140.382822,38.2138641 L140.382822,40.6894422 C140.683817,40.3927547 141.189461,40.2590984 141.617427,40.2590984 C142.881162,40.2590984 143.445062,41.1102391 143.445062,42.1515828 L143.445062,45.1338797 L141.967718,45.1338797 L141.967718,42.3998016 C141.967718,41.9320047 141.714523,41.5780359 141.179751,41.5780359 C140.712946,41.5780359 140.41195,41.9033641 140.382822,42.3425203 L140.382822,45.1338797 Z" id="Fill-23"></path>
                    <path d="M147.563253,41.8170016 C147.398191,41.7788141 147.242838,41.7692672 147.096448,41.7692672 C146.504166,41.7692672 145.969394,42.1136891 145.969394,43.0595641 L145.969394,45.1341734 L144.491303,45.1341734 L144.491303,40.3835016 L145.9201,40.3835016 L145.9201,41.0238766 C146.173295,40.4885172 146.785743,40.3357672 147.174124,40.3357672 C147.320515,40.3357672 147.466158,40.3548609 147.563253,40.3835016 L147.563253,41.8170016 Z" id="Fill-24"></path>
                    <path d="M151.255419,42.1899172 C151.236,41.8264016 150.983552,41.3872453 150.282971,41.3872453 C149.660813,41.3872453 149.350108,41.8366828 149.320979,42.1899172 L151.255419,42.1899172 Z M152.59683,43.7666203 C152.363801,44.5891203 151.596,45.2772297 150.370357,45.2772297 C149.038656,45.2772297 147.852598,44.3409016 147.852598,42.7443703 C147.852598,41.2146672 149.009527,40.2401516 150.263552,40.2401516 C151.761062,40.2401516 152.684963,41.1478391 152.684963,42.6775422 C152.684963,42.8780266 152.664797,43.0976047 152.655834,43.1262453 L149.291851,43.1262453 C149.320979,43.6616047 149.816913,44.0442141 150.390523,44.0442141 C150.925295,44.0442141 151.22629,43.7959953 151.362224,43.4229328 L152.59683,43.7666203 Z" id="Fill-25"></path>
                    <path d="M156.140813,43.2699625 L156.140813,43.0599313 L155.226622,43.2031344 C154.915917,43.2508688 154.682888,43.3940719 154.682888,43.7289469 C154.682888,43.9771656 154.84795,44.2165719 155.255751,44.2165719 C155.693427,44.2165719 156.140813,44.0058063 156.140813,43.2699625 M154.653759,42.3909156 L155.79127,42.2183375 C156.053427,42.18015 156.140813,42.0560406 156.140813,41.8937438 C156.140813,41.6168844 155.898075,41.3774781 155.43127,41.3774781 C154.915917,41.3774781 154.633593,41.7219 154.604465,42.0751344 L153.322058,41.8166344 C153.380315,41.1388063 154.021892,40.2399313 155.440979,40.2399313 C157.006456,40.2399313 157.57932,41.0998844 157.57932,42.0751344 L157.57932,44.3979625 C157.57932,44.7702906 157.628614,45.0860719 157.637577,45.1338063 L156.305876,45.1338063 C156.296166,45.0956188 156.257328,44.923775 156.257328,44.5984469 C156.00488,45.00015 155.538075,45.2674625 154.896498,45.2674625 C153.837411,45.2674625 153.224216,44.5793531 153.224216,43.8244156 C153.224216,42.9828219 153.856083,42.5054781 154.653759,42.3909156" id="Fill-26"></path>
                    <path d="M160.747245,43.9390516 C161.320855,43.9390516 161.836207,43.5373484 161.836207,42.7537703 C161.836207,41.9606453 161.320855,41.5780359 160.747245,41.5780359 C160.173635,41.5780359 159.658282,41.9606453 159.658282,42.7537703 C159.658282,43.5373484 160.173635,43.9390516 160.747245,43.9390516 L160.747245,43.9390516 Z M163.274714,44.2834734 C163.274714,44.7130828 163.303842,45.0288641 163.314299,45.1338797 L161.894465,45.1338797 C161.884755,45.0765984 161.855627,44.8665672 161.855627,44.6748953 C161.632307,45.0002234 161.146083,45.2388953 160.562763,45.2388953 C159.201934,45.2388953 158.171228,44.2063641 158.171228,42.7442234 C158.171228,41.3298172 159.143676,40.2686453 160.514216,40.2686453 C161.340274,40.2686453 161.700274,40.5741453 161.816788,40.7562703 L161.816788,38.2138641 L163.274714,38.2138641 L163.274714,44.2834734 Z" id="Fill-27"></path>
                </g>
            </g>
        </g>
    </g>
</svg>