<?xml version="1.0" encoding="UTF-8"?>
<svg width="309px" height="251px" viewBox="0 0 309 251" version="1.1" xmlns="http://www.w3.org/2000/svg" xmlns:xlink="http://www.w3.org/1999/xlink">
    <!-- Generator: Sketch 52.6 (67491) - http://www.bohemiancoding.com/sketch -->
    <title>Group 2</title>
    <desc>Created with Sketch.</desc>
    <g id="Symbols" stroke="none" stroke-width="1" fill="none" fill-rule="evenodd">
        <g id="footer" transform="translate(-1522.000000, -343.000000)">
            <g transform="translate(94.000000, 0.000000)" id="decoration">
                <g transform="translate(0.000000, 306.000000)">
                    <g id="Group-2" transform="translate(1400.000000, 0.000000)">
                        <path d="M190.528287,20.9086575 C267.299329,18.2864012 306.897941,36.3252156 306.304843,89.6276037 C306.145187,103.976052 328.000707,247.483288 300.753236,273.633652 C278.336712,295.147586 268.716094,325.718058 230.367764,333.032649 C192.019434,340.34724 62.4144972,288.80707 73.516608,229.219736 C84.6187187,169.632402 113.757245,23.5309137 190.528287,20.9086575 Z" id="blob" fill="#96D6E8" transform="translate(193.646158, 177.194912) rotate(-116.000000) translate(-193.646158, -177.194912) "></path>
                        <g id="small-dots" transform="translate(38.691441, 215.878381) rotate(-134.000000) translate(-38.691441, -215.878381) translate(22.191441, 194.378381)" fill="#08242A">
                            <path d="M8.68760045,8.68366012 C9.68760045,8.68366012 12.6876005,8.68366012 12.6876005,4.68366012 C12.6876005,3.62871996 12.271491,3.39836307 11.6876005,2.68366012 C11.048772,1.90171122 9.68760045,1.17251174 8.68760045,1.68366012 C6.95828856,2.5675951 5.68760045,2.47452112 5.68760045,4.68366012 C5.68760045,6.89279912 7.68760045,8.68366012 8.68760045,8.68366012 Z" id="Oval" transform="translate(9.187600, 5.098506) rotate(113.000000) translate(-9.187600, -5.098506) "></path>
                            <path d="M11.8440075,42.7723253 C12.8440075,42.7723253 15.8440075,42.7723253 15.8440075,38.7723253 C15.8440075,37.7173851 15.4278981,37.4870283 14.8440075,36.7723253 C14.2051791,35.9903764 12.8440075,35.2611769 11.8440075,35.7723253 C10.1146956,36.6562603 8.84400754,36.5631863 8.84400754,38.7723253 C8.84400754,40.9814643 10.8440075,42.7723253 11.8440075,42.7723253 Z" id="Oval"></path>
                            <path d="M4.4429428,26.2717771 C5.4429428,26.2717771 6.4429428,26.1014693 6.4429428,23.2717771 C6.4429428,22.2168369 6.02683336,21.98648 5.4429428,21.2717771 C4.80411434,20.4898282 3.24932866,19.4653912 2.4429428,20.2717771 C1.4429428,21.2717771 0.442942802,21.0626381 0.442942802,23.2717771 C0.442942802,25.4809161 3.4429428,26.2717771 4.4429428,26.2717771 Z" id="Oval"></path>
                            <path d="M29.2225487,28.2370208 C31.3654058,28.2370208 32.0796915,27.2370208 32.0796915,25.3276016 C32.0796915,24.6157493 31.7824705,24.4603091 31.3654058,23.978042 C30.9090998,23.4503986 29.2225487,22.8434293 28.508263,23.1883419 C27.2730402,23.7848034 27.0796915,24.767742 27.0796915,25.3276016 C27.0796915,25.8874612 27.0796915,28.2370208 29.2225487,28.2370208 Z" id="Oval"></path>
                        </g>
                    </g>
                </g>
            </g>
        </g>
    </g>
</svg>