<?xml version="1.0" encoding="UTF-8"?>
<svg width="30px" height="20px" viewBox="0 0 30 20" version="1.1" xmlns="http://www.w3.org/2000/svg" xmlns:xlink="http://www.w3.org/1999/xlink">
    <!-- Generator: Sketch 55 (78076) - https://sketchapp.com -->
    <title>woocommerce</title>
    <desc>Created with Sketch.</desc>
    <g id="Page-1" stroke="none" stroke-width="1" fill="none" fill-rule="evenodd">
        <g id="Homepage" transform="translate(-279.000000, -3766.000000)">
            <g id="fulfillment" transform="translate(89.000000, 2867.000000)">
                <g id="step-01" transform="translate(18.000000, 450.591281)">
                    <g id="icons" transform="translate(80.000000, 443.000000)">
                        <g id="woocommerce" transform="translate(92.000000, 0.000000)">
                            <g id="Group" transform="translate(0.000000, 5.625000)">
                                <path d="M2.78423316,0.68119891 L27.2035522,0.68119891 C28.7490223,0.68119891 30,1.96550073 30,3.55213984 L30,13.1216622 C30,14.7083013 28.7490223,15.9926031 27.2035522,15.9926031 L18.4464739,15.9926031 L19.6484672,19.0145322 L14.3622515,15.9926031 L2.79642067,15.9926031 C1.2510677,15.9926031 9.00087704e-05,14.7083013 9.00087704e-05,13.1216622 L9.00087704e-05,3.55213984 C-0.0122146899,1.97813321 1.23864582,0.68119891 2.78423316,0.68119891 Z" id="Path" fill="#9B5C8F"></path>
                                <path d="M1.87393507,3.23041084 C2.04255005,3.0016952 2.29541466,2.88144026 2.63264462,2.85738927 C3.24692624,2.80917167 3.59619187,3.09789915 3.68044149,3.72368734 C4.05377844,6.23863436 4.46322237,8.36853432 4.89673762,10.1132716 L7.53416757,5.09551867 C7.77511224,4.63820302 8.07623522,4.39757752 8.43753651,4.37352653 C8.96745278,4.33745005 9.29253135,4.6742795 9.42503935,5.38424616 C9.72616233,6.98456187 10.1115349,8.3443677 10.5691215,9.49950889 C10.8822802,6.44318339 11.4121964,4.24113047 12.1588703,2.88144026 C12.3394052,2.54449517 12.6044212,2.37602263 12.9536868,2.35185601 C13.2307385,2.32792066 13.4836031,2.41209911 13.7123964,2.59259715 C13.9411897,2.77309519 14.061662,3.0016952 14.0857333,3.27851281 C14.097769,3.49508733 14.061662,3.67558537 13.9653767,3.85608341 C13.4956388,4.72249711 13.1101504,6.17850689 12.7971075,8.19994615 C12.4961003,10.1613736 12.3876636,11.6896519 12.4598776,12.7846657 C12.4840646,13.085303 12.4358062,13.3500951 12.3154496,13.5788108 C12.1707902,13.8434873 11.9541483,13.9879088 11.6770967,14.0119598 C11.363938,14.0360108 11.0388595,13.8917049 10.7257008,13.5667853 C9.60568999,12.423554 8.71447244,10.7148932 8.06419956,8.44068728 C7.28130296,9.98087553 6.70324405,11.1360167 6.3299071,11.9061108 C5.61934019,13.2659167 5.01720996,13.9638578 4.51136501,13.9999343 C4.18617071,14.0239853 3.90923478,13.7471677 3.66840583,13.1697127 C3.05423994,11.5933324 2.39181567,8.54891673 1.68136449,4.03658144 C1.63310612,3.72368734 1.70532009,3.44686973 1.87393507,3.23041084 L1.87393507,3.23041084 Z M27.7547724,5.11956966 C27.3212572,4.36150103 26.6829042,3.90430101 25.8279094,3.72368734 C25.5990004,3.67558537 25.3823585,3.65153438 25.1775208,3.65153438 C24.021403,3.65153438 23.0820428,4.25315596 22.3474045,5.45651475 C21.7210873,6.47925987 21.4080443,7.61035006 21.4080443,8.84978533 C21.4080443,9.7763265 21.6007306,10.5704716 21.9861033,11.2323363 C22.4196185,11.9904049 23.0579714,12.4476049 23.9129663,12.628103 C24.1417596,12.6763206 24.3585172,12.7003716 24.5633549,12.7003716 C25.7315084,12.7003716 26.6708686,12.09875 27.3934711,10.8953912 C28.0196727,9.86050496 28.3328313,8.72941476 28.3328313,7.49009513 C28.344867,6.55152846 28.140145,5.76929322 27.7547724,5.11956966 L27.7547724,5.11956966 Z M26.2373533,8.45271278 C26.0687383,9.24685789 25.7676154,9.83645397 25.3219487,10.2335265 C24.9727988,10.5464206 24.6476045,10.6787011 24.3465973,10.6185736 C24.0575099,10.5584461 23.8165653,10.3057951 23.6360304,9.83645397 C23.491371,9.4634324 23.4192727,9.09041084 23.4192727,8.74144026 C23.4192727,8.44068728 23.4433441,8.13981868 23.5035224,7.86311669 C23.611959,7.36972456 23.816681,6.88835792 24.1417596,6.43115789 C24.5392836,5.84144618 24.9607632,5.6009363 25.3942784,5.68511476 C25.6833657,5.74524223 25.9243104,5.99800886 26.1048453,6.46723437 C26.249389,6.84025594 26.3216029,7.21327751 26.3216029,7.56224809 C26.3216029,7.87514219 26.2975316,8.17589516 26.2373533,8.45259715 L26.2373533,8.45271278 Z M20.2157038,5.11956966 C19.7821886,4.36150103 19.1318,3.90430101 18.2888408,3.72368734 C18.0600475,3.67558537 17.8432899,3.65153438 17.6384522,3.65153438 C16.4823343,3.65153438 15.5429741,4.25315596 14.8083359,5.45651475 C14.1821344,6.47925987 13.8689757,7.61035006 13.8689757,8.84978533 C13.8689757,9.7763265 14.061662,10.5704716 14.4470346,11.2323363 C14.8805499,11.9904049 15.5189028,12.4476049 16.3738977,12.628103 C16.6028067,12.6763206 16.8194486,12.7003716 17.0242863,12.7003716 C18.1924398,12.7003716 19.1318,12.09875 19.8544025,10.8953912 C20.4807198,9.86050496 20.7937627,8.72941476 20.7937627,7.49009513 C20.7937627,6.55152846 20.6010764,5.76929322 20.2157038,5.11956966 L20.2157038,5.11956966 Z M18.686249,8.45271278 C18.5176341,9.24685789 18.2165111,9.83645397 17.7709602,10.2335265 C17.4216945,10.5464206 17.0965002,10.6787011 16.7953773,10.6185736 C16.5064057,10.5584461 16.2655767,10.3057951 16.0848104,9.83645397 C15.9403824,9.4634324 15.8681685,9.09041084 15.8681685,8.74144026 C15.8681685,8.44068728 15.8922398,8.13981868 15.9524181,7.86311669 C16.0608548,7.36972456 16.2655767,6.88835792 16.590771,6.43115789 C16.9881793,5.84144618 17.4096589,5.6009363 17.8431741,5.68511476 C18.1322615,5.74524223 18.3732061,5.99800886 18.553741,6.46723437 C18.6984004,6.84025594 18.7704987,7.21327751 18.7704987,7.56224809 C18.7826501,7.87514219 18.7464273,8.17589516 18.686249,8.45259715 L18.686249,8.45271278 Z" id="Shape" fill="#FFFFFF" fill-rule="nonzero"></path>
                            </g>
                        </g>
                    </g>
                </g>
            </g>
        </g>
    </g>
</svg>