<?xml version="1.0" encoding="UTF-8"?>
<svg width="28px" height="29px" viewBox="0 0 28 29" version="1.1" xmlns="http://www.w3.org/2000/svg" xmlns:xlink="http://www.w3.org/1999/xlink">
    <!-- Generator: Sketch 55 (78076) - https://sketchapp.com -->
    <title>zapier</title>
    <desc>Created with Sketch.</desc>
    <g id="Page-1" stroke="none" stroke-width="1" fill="none" fill-rule="evenodd">
        <g id="Homepage" transform="translate(-326.000000, -3761.000000)" fill="#FF4A00" fill-rule="nonzero">
            <g id="fulfillment" transform="translate(89.000000, 2867.000000)">
                <g id="step-01" transform="translate(18.000000, 450.591281)">
                    <g id="icons" transform="translate(80.000000, 443.000000)">
                        <g id="zapier" transform="translate(138.000000, 0.000000)">
                            <path d="M18.5,15.00609 C18.4993,16.04643 18.30911,17.04239 17.9624,17.96177 C17.04316,18.30876 16.04678,18.49937 15.00602,18.50007 L14.99398,18.50007 C13.95378,18.49937 12.95768,18.30932 12.03844,17.96247 C11.69166,17.04337 11.5007,16.04699 11.5,15.00637 L11.5,14.99426 C11.5007,13.95392 11.69124,12.95796 12.03746,12.03865 C12.95712,11.69187 13.95336,11.50105 14.99398,11.50035 L15.00602,11.50035 C16.04678,11.50105 17.04316,11.69187 17.96233,12.03865 C18.30883,12.95803 18.49923,13.95399 18.49993,14.99433 L18.49993,15.00644 L18.49993,15.0063 L18.5,15.00609 Z M28.8054,12.66669 L20.63318,12.66669 L26.41168,6.88819 C25.9580054,6.25104026 25.4519708,5.65284612 24.89884,5.09983 L24.89856,5.09927 C24.345987,4.54677789 23.7483616,4.04126422 23.11188,3.58797 L17.33338,9.36647 L17.33338,1.19474 C16.5647363,1.06558463 15.786699,1.00044771 15.00728,1 L14.99244,1 C14.2131183,1.0004163 13.4351753,1.06550634 12.66662,1.1946 L12.66662,9.36689 L6.88812,3.58839 C6.251322,4.04184335 5.65343489,4.54759473 5.10067,5.10039 L5.09857,5.10228 C4.54656333,5.65462844 4.04149596,6.25197111 3.5886,6.88812 L9.3671,12.66662 L1.1946,12.66662 C1.1946,12.66662 1.00028,14.20172 1,14.99482 L1,15.00497 C1.00029162,15.7852254 1.06538199,16.5641088 1.1946,17.33359 L9.36682,17.33359 L3.58832,23.11209 C4.49704241,24.3879189 5.61229112,25.5031676 6.88812,26.41189 L12.66662,20.63353 L12.66662,28.8054 C13.4344423,28.9343329 14.2116279,28.9994223 14.9902,29 L15.01022,29 C15.7886973,28.999377 16.5657861,28.9342879 17.33352,28.8054 L17.33352,20.63311 L23.11202,26.41161 C23.7486077,25.9582885 24.3463276,25.4527273 24.89898,24.90017 L24.90038,24.89912 C25.4528514,24.3464527 25.9583631,23.7487594 26.41168,23.11223 L20.63318,17.33359 L28.8054,17.33359 C28.9343175,16.5658599 28.9994068,15.7887686 29,15.01029 L29,14.9902 C28.999377,14.2117227 28.9342879,13.4346339 28.8054,12.6669 L28.8054,12.66669 Z" id="Shape"></path>
                        </g>
                    </g>
                </g>
            </g>
        </g>
    </g>
</svg>