<?xml version="1.0" encoding="UTF-8"?>
<svg width="108px" height="60px" viewBox="0 0 108 60" version="1.1" xmlns="http://www.w3.org/2000/svg" xmlns:xlink="http://www.w3.org/1999/xlink">
    <!-- Generator: Sketch 52.6 (67491) - http://www.bohemiancoding.com/sketch -->
    <title>icon</title>
    <desc>Created with Sketch.</desc>
    <g id="Page-1" stroke="none" stroke-width="1" fill="none" fill-rule="evenodd">
        <g id="Homepage" transform="translate(-770.000000, -2608.000000)">
            <g id="all-products" transform="translate(0.000000, 1935.000000)">
                <g id="request" transform="translate(682.000000, 620.000000)">
                    <g id="icon" transform="translate(86.000000, 53.000000)">
                        <path d="M43.8338398,45.7582918 C45.2087076,47.6552409 63.989155,45.3458034 67.9807347,45.3458034 C71.9723145,45.3458034 63.989155,27.5755764 67.9807347,18.7078166 C68.3105684,17.1241519 68.4890375,20.3573885 71.6823012,21.9214132 C73.1095187,22.6204483 76.3886186,20.3573885 79.0558093,17.325828 C80.9116761,15.2164278 67.3800978,5.96404052 62.9008259,4.15118615 C58.9092462,2.53571096 60.7849742,7.25152224 54.1396202,7.81597996 C47.7515701,8.35858223 49.3294548,2.53571096 46.1361911,4.15118615 C43.6738603,5.39688161 30.9681881,13.8440373 31.7665041,16.26725 C32.3406927,18.0101454 33.7076755,21.5386015 37.201913,23.0068106 C39.567069,24.0006021 43.8722353,16.4807933 43.820763,19.0596241 C43.6938056,25.4203546 41.4552892,42.4765295 43.8338398,45.7582918 Z" id="Path" stroke="#F9F9FA" stroke-width="3" stroke-linecap="round" transform="translate(55.479971, 25.161066) rotate(-2.000000) translate(-55.479971, -25.161066) "></path>
                        <path d="M83.1720022,46.8661781 C87.8620215,46.7396588 92.591034,46.6061724 94.6909905,46.6061724 C98.6825702,46.6061724 90.6994107,28.8359454 94.6909905,19.9681856 C95.0208241,18.384521 95.1992932,21.6177575 98.392557,23.1817822 C99.8197744,23.8808173 103.098874,21.6177575 105.766065,18.586197 C107.621932,16.4767968 94.0903536,7.22440954 89.6110816,5.41155517 C85.6195019,3.79607998 87.4952299,8.51189126 80.8498759,9.07634898 C74.4618258,9.61895125 76.0397105,3.79607998 72.8464468,5.41155517 C72.0150228,5.83217333 70.0157304,7.07384763 67.7627737,8.62743792" id="Path" stroke="#F9F9FA" stroke-width="3" stroke-linecap="round" transform="translate(86.851250, 25.971195) rotate(19.000000) translate(-86.851250, -25.971195) "></path>
                        <path d="M17.6693728,47.2772062 C25.4003315,46.9776946 29.9657963,46.8279387 31.3657673,46.8279387 C35.357347,46.8279387 28.7111174,20.2075737 31.3657673,20.1899519 C31.8732413,20.1763878 31.8740701,21.8395238 35.0673338,23.4035485 C36.4945513,24.1025836 39.7736511,21.8395238 42.4408418,18.8079633 C44.2967087,16.6985631 30.7651304,7.44617583 26.2858584,5.63332146 C22.2942787,4.01784628 24.1700068,8.73365756 17.5246528,9.29811527 C11.1366027,9.84071755 12.7144874,4.01784628 9.52122364,5.63332146 C8.6897997,6.05393963 8.08451293,7.49487581 5.83155623,9.04846609" id="Path" stroke="#F9F9FA" stroke-width="3" stroke-linecap="round" transform="translate(24.223030, 26.287592) scale(-1, 1) rotate(19.000000) translate(-24.223030, -26.287592) "></path>
                        <path d="M76.249,54.625 C76.249,55.522 74.855,56.249 73.958,56.249 C73.061,56.249 72,55.522 72,54.625 C72,53.728 72.59,53 73.958,53 C75.267,53 76.249,53.728 76.249,54.625" id="Fill-203" fill="#EA8DC4"></path>
                        <path d="M81.249,57.625 C81.249,58.522 79.855,59.249 78.958,59.249 C78.061,59.249 77,58.522 77,57.625 C77,56.728 77.59,56 78.958,56 C80.267,56 81.249,56.728 81.249,57.625" id="Fill-203" fill="#EA8DC4" transform="translate(79.124500, 57.624500) rotate(-159.000000) translate(-79.124500, -57.624500) "></path>
                    </g>
                </g>
            </g>
        </g>
    </g>
</svg>