<?xml version="1.0" encoding="UTF-8"?>
<svg width="69px" height="71px" viewBox="0 0 69 71" version="1.1" xmlns="http://www.w3.org/2000/svg" xmlns:xlink="http://www.w3.org/1999/xlink">
    <!-- Generator: Sketch 52.6 (67491) - http://www.bohemiancoding.com/sketch -->
    <title>icon</title>
    <desc>Created with Sketch.</desc>
    <g id="Page-1" stroke="none" stroke-width="1" fill="none" fill-rule="evenodd">
        <g id="Homepage" transform="translate(-1055.000000, -822.000000)">
            <g id="callouts" transform="translate(218.000000, 807.000000)">
                <g id="money-back" transform="translate(764.000000, 15.000000)">
                    <g id="icon" transform="translate(73.000000, 2.000000)">
                        <g id="Group-7">
                            <path d="M28.9764513,11.0487011 C13.850755,8.67626384 -0.397347041,20.0782865 0.952902573,39.5179487 C1.87487374,52.7916485 7.30104395,62.7646432 17.245881,66.4821611 C20.632012,67.7479437 24.5420117,68.2885017 28.9764513,67.9871963 C46.1521747,67.9871963 57,55.24108 57,39.5179487 C57,29 51.7713707,28.4802716 50.7692543,25.4138399 C49,20 46.8837494,18.207316 44,16 C39.7177218,12.7222043 33.6182459,11.776758 28.9764513,11.0487011 Z" id="Path" fill="#96D6E8"></path>
                            <path d="M31,22 C27.8207624,24.6011944 27,34 27,36 C27,38 36,47 41,41 C44.3333333,37 44.3333333,31.3333333 41,24 C36.4528251,20.9325371 33.1194917,20.2658704 31,22 Z" id="Path-18" fill="#F9F9FA"></path>
                            <path d="M36,62 C55,62 67,48.1208272 67,31 C67,9 55,-3.55271368e-14 36,-3.55271368e-14 C17,-3.55271368e-14 4.10018184,13.903455 5,31 C6,50 17,62 36,62 Z" id="Oval" stroke="#08242A" stroke-width="3" stroke-linecap="round" stroke-linejoin="round"></path>
                            <path d="M35.9701171,7 C23,5 10.7824102,14.612075 11.9402343,31 C13,46 21,56 35.9701171,55 C50.6981099,55 60,44.254834 60,31 C60,29.3068695 59.9080805,27.7131946 59.7280488,26.2159333" id="Path" stroke="#08242A" stroke-width="3" stroke-linecap="round" stroke-linejoin="round"></path>
                            <polyline id="Path-17" stroke="#08242A" stroke-width="3" stroke-linecap="round" stroke-linejoin="round" transform="translate(36.441700, 29.445313) scale(-1, 1) rotate(6.000000) translate(-36.441700, -29.445313) " points="51.3406405 28.6152933 21.5427596 22.3908174 44.3461186 42.7198218 34.7408603 16.1708043 27.938961 41.9507911 32.8025792 38.4296086"></polyline>
                            <path d="M54.5881233,12.6747709 C54.5881233,13.5717709 53.1941233,14.2987709 52.2971233,14.2987709 C51.4001233,14.2987709 50.3391233,13.5717709 50.3391233,12.6747709 C50.3391233,11.7777709 50.9291233,11.0497709 52.2971233,11.0497709 C53.6061233,11.0497709 54.5881233,11.7777709 54.5881233,12.6747709" id="Fill-203" fill="#EA8DC4" transform="translate(52.463623, 12.674271) rotate(178.000000) translate(-52.463623, -12.674271) "></path>
                            <path d="M59.0000541,18.3959362 C59.0000541,19.2929362 57.6060541,20.0199362 56.7090541,20.0199362 C55.8120541,20.0199362 54.7510541,19.2929362 54.7510541,18.3959362 C54.7510541,17.4989362 55.3410541,16.7709362 56.7090541,16.7709362 C58.0180541,16.7709362 59.0000541,17.4989362 59.0000541,18.3959362" id="Fill-203" fill="#EA8DC4" transform="translate(56.875554, 18.395436) rotate(-281.000000) translate(-56.875554, -18.395436) "></path>
                        </g>
                    </g>
                </g>
            </g>
        </g>
    </g>
</svg>