<?xml version="1.0" encoding="UTF-8"?>
<svg width="82px" height="65px" viewBox="0 0 82 65" version="1.1" xmlns="http://www.w3.org/2000/svg" xmlns:xlink="http://www.w3.org/1999/xlink">
    <!-- Generator: Sketch 52.6 (67491) - http://www.bohemiancoding.com/sketch -->
    <title>icon</title>
    <desc>Created with Sketch.</desc>
    <g id="Page-1" stroke="none" stroke-width="1" fill="none" fill-rule="evenodd">
        <g id="Homepage" transform="translate(-293.000000, -826.000000)">
            <g id="callouts" transform="translate(218.000000, 807.000000)">
                <g id="low-mins" transform="translate(0.000000, 17.000000)">
                    <g id="icon" transform="translate(75.000000, 0.000000)">
                        <rect id="Rectangle" x="0" y="0" width="82" height="70"></rect>
                        <g id="Group-6" transform="translate(0.000000, 3.000000)">
                            <path d="M24,17 C20,22 12,34 12,42 C12,50 13,64 24,64 C35,64 49,57 59,57 C69,57 79,53 79,42 C79,31 73,15 64,15 C55,15 47,4 40,4 C33,4 28,12 24,17 Z" id="Path-13" fill="#96D6E8"></path>
                            <path d="M76.249,12.625 C76.249,13.522 74.855,14.249 73.958,14.249 C73.061,14.249 72,13.522 72,12.625 C72,11.728 72.59,11 73.958,11 C75.267,11 76.249,11.728 76.249,12.625" id="Fill-203" fill="#EA8DC4"></path>
                            <path d="M81.249,15.625 C81.249,16.522 79.855,17.249 78.958,17.249 C78.061,17.249 77,16.522 77,15.625 C77,14.728 77.59,14 78.958,14 C80.267,14 81.249,14.728 81.249,15.625" id="Fill-203" fill="#EA8DC4" transform="translate(79.124500, 15.624500) rotate(-159.000000) translate(-79.124500, -15.624500) "></path>
                            <path d="M19.4835638,6.51284128 C21.883565,6.18951722 24.0557104,6.35190346 26,7 C35,10 47,10 58,7 C60.2912441,6.37511524 62.4520775,6.18877939 64.4825002,6.44099245 L64.4825006,6.44098905 C65.9314566,6.62097405 67.0404094,7.81800106 67.1093488,9.27646442 C68.3322784,35.1484116 68.2958288,49.0562568 67,51 C65,54 19,54 17,51 C15.705307,49.0579605 15.6677865,35.1727829 16.8874384,9.34446722 L16.8874472,9.34446764 C16.9557688,7.8976341 18.0480857,6.70622643 19.4835638,6.51284128 Z" id="Rectangle" stroke="#08242A" stroke-width="3" stroke-linecap="round" stroke-linejoin="round"></path>
                            <path d="M61.3691406,46.4204102 C63,44 62.8393555,42 62.8393555,40.1196289" id="Path-14" stroke="#08242A" stroke-width="3" stroke-linecap="round" stroke-linejoin="round"></path>
                            <path d="M28.0210906,7.83040787 C28.423307,15.7284423 34.5280798,22 42,22 C48.026667,22 53.1639173,17.9199512 55.1368368,12.1972614 C55.6013206,10.8499705 55.8904146,9.41163283 55.9744332,7.91405448" id="Path" stroke="#08242A" stroke-width="3" stroke-linecap="round" stroke-linejoin="round"></path>
                            <path d="M44.409673,7.95170073 C45.5994931,7.70018294 46.7827996,7.41461195 47.954755,7.09498774 C50.2448334,6.4704209 52.4046338,6.28395685 54.4341561,6.53559557 C55.8838942,6.71533729 56.9933947,7.91320386 57.0617402,9.37244214 C57.1719525,11.7255723 57.2442046,13.2943731 57.2784965,14.0788445 M28.4980567,53.3241253 C23.4536732,53.262888 18.599683,53.0668385 14.7743763,52.7359768 C10.4458773,52.3615925 7.43449401,51.8145962 6.95475504,51.0949877 C5.66006206,49.1529483 5.62254152,35.2677707 6.8421934,9.43945496 C6.91052387,7.99262184 8.00284074,6.80121417 9.43831882,6.60782902 C11.83832,6.28450496 14.0104654,6.4468912 15.954755,7.09498774 C17.8041182,7.71144211 19.7801533,8.20122449 21.8481548,8.56433486" id="Shape" stroke="#08242A" stroke-width="3" stroke-linecap="round" stroke-linejoin="round" transform="translate(31.616626, 29.875659) rotate(-15.000000) translate(-31.616626, -29.875659) "></path>
                            <path d="M11.734737,11.3231289 C11.734737,14.8263649 13.0157456,18.049105 15.1625756,20.6021113" id="Shape" stroke="#08242A" stroke-width="3" stroke-linecap="round" stroke-linejoin="round" transform="translate(13.448656, 15.962620) rotate(-15.000000) translate(-13.448656, -15.962620) "></path>
                        </g>
                    </g>
                </g>
            </g>
        </g>
    </g>
</svg>