<?xml version="1.0" encoding="UTF-8"?>
<svg width="28px" height="31px" viewBox="0 0 28 31" version="1.1" xmlns="http://www.w3.org/2000/svg" xmlns:xlink="http://www.w3.org/1999/xlink">
    <!-- Generator: Sketch 55 (78076) - https://sketchapp.com -->
    <title>shopify</title>
    <desc>Created with Sketch.</desc>
    <g id="Page-1" stroke="none" stroke-width="1" fill="none" fill-rule="evenodd">
        <g id="Homepage" transform="translate(-188.000000, -3760.000000)" fill="#7AB55C">
            <g id="fulfillment" transform="translate(89.000000, 2867.000000)">
                <g id="step-01" transform="translate(18.000000, 450.591281)">
                    <g id="icons" transform="translate(80.000000, 443.000000)">
                        <g id="shopify">
                            <path d="M19.235625,29.975625 L28.254375,28.021875 C28.254375,28.021875 25.00125,6.005625 24.973125,5.859375 C24.950625,5.715 24.830625,5.619375 24.710625,5.619375 C24.58875,5.619375 22.299375,5.450625 22.299375,5.450625 C22.299375,5.450625 20.705625,3.856875 20.499375,3.688125 C20.443125,3.64125 20.405625,3.616875 20.349375,3.594375 L19.205625,29.975625 L19.235625,29.975625 Z M14.701875,14.131875 C14.701875,14.131875 13.689375,13.60125 12.48375,13.60125 C10.674375,13.60125 10.603125,14.735625 10.603125,15.02625 C10.603125,16.5675 14.653125,17.17125 14.653125,20.8125 C14.653125,23.68125 12.853125,25.515 10.396875,25.515 C7.453125,25.515 5.971875,23.68125 5.971875,23.68125 L6.778125,21.075 C6.778125,21.075 8.334375,22.40625 9.628125,22.40625 C10.471875,22.40625 10.846875,21.7275 10.846875,21.24375 C10.846875,19.21875 7.528125,19.125 7.528125,15.795 C7.48875,12.9975 9.495,10.275 13.56375,10.275 C15.135,10.275 15.9075,10.725 15.9075,10.725 L14.72625,14.11875 L14.701875,14.131875 Z M14.026875,1.036875 C14.195625,1.036875 14.364375,1.085625 14.533125,1.205625 C13.303125,1.786875 11.953125,3.255 11.398125,6.196875 C10.57875,6.463125 9.781875,6.703125 9.035625,6.920625 C9.68625,4.6875 11.25375,1.05 14.026875,1.05 L14.026875,1.036875 Z M15.57,4.725 L15.57,4.89375 C14.62875,5.184375 13.591875,5.4975 12.579375,5.8125 C13.160625,3.5925 14.244375,2.50875 15.185625,2.1 C15.425625,2.724375 15.57,3.57 15.57,4.725 L15.57,4.725 Z M16.245,1.93125 C17.113125,2.025 17.67,3.015 18.03,4.125 C17.595,4.269375 17.11125,4.41375 16.5825,4.5825 L16.5825,4.269375 C16.5825,3.328125 16.4625,2.555625 16.245,1.929375 L16.245,1.93125 Z M19.98375,3.54375 C19.959375,3.54375 19.90875,3.57 19.88625,3.57 C19.861875,3.57 19.524375,3.66375 18.99375,3.8325 C18.465,2.29125 17.52375,0.87 15.85875,0.87 L15.714375,0.87 C15.2325,0.2625 14.65125,0 14.145,0 C10.26375,0 8.4075,4.846875 7.82625,7.306875 C6.33375,7.764375 5.248125,8.10375 5.12625,8.150625 C4.2825,8.416875 4.26,8.44125 4.1625,9.238125 C4.06875,9.815625 1.875,26.81625 1.875,26.81625 L18.825,30 L19.981875,3.54375 L19.98375,3.54375 Z" id="Shape"></path>
                        </g>
                    </g>
                </g>
            </g>
        </g>
    </g>
</svg>