<?xml version="1.0" encoding="UTF-8"?>
<svg width="30px" height="25px" viewBox="0 0 30 25" version="1.1" xmlns="http://www.w3.org/2000/svg" xmlns:xlink="http://www.w3.org/1999/xlink">
    <!-- Generator: Sketch 55 (78076) - https://sketchapp.com -->
    <title>squarespace</title>
    <desc>Created with Sketch.</desc>
    <g id="Page-1" stroke="none" stroke-width="1" fill="none" fill-rule="evenodd">
        <g id="Homepage" transform="translate(-233.000000, -3764.000000)" fill="#000000" fill-rule="nonzero">
            <g id="fulfillment" transform="translate(89.000000, 2867.000000)">
                <g id="step-01" transform="translate(18.000000, 450.591281)">
                    <g id="icons" transform="translate(80.000000, 443.000000)">
                        <g id="squarespace" transform="translate(46.000000, 0.000000)">
                            <path d="M28.318125,11.58 C26.068125,9.33 22.411875,9.33 20.113125,11.58 L10.925625,20.7675 C10.363125,21.33 10.363125,22.2675 10.925625,22.83 C11.488125,23.3925 12.425625,23.3925 12.988125,22.83 L22.175625,13.6425 C23.300625,12.5175 25.130625,12.5175 26.255625,13.6425 C27.380625,14.7675 27.380625,16.5975 26.255625,17.7225 L17.206875,26.77125 C18.331875,27.89625 20.16,27.89625 21.285,26.77125 L28.27125,19.785 C30.568125,17.488125 30.568125,13.83 28.318125,11.58 Z M25.224375,14.626875 C24.661875,14.064375 23.724375,14.064375 23.161875,14.626875 L13.96875,23.863125 C12.84375,24.988125 11.0175,24.988125 9.8925,23.863125 C9.33,23.300625 8.3925,23.300625 7.83,23.863125 C7.2675,24.425625 7.2675,25.363125 7.83,25.925625 C10.08,28.175625 13.73625,28.175625 16.035,25.925625 L25.2225,16.738125 C25.785,16.12875 25.785,15.189375 25.2225,14.626875 L25.224375,14.626875 Z M22.175625,5.439375 C19.925625,3.189375 16.269375,3.189375 13.970625,5.439375 L4.783125,14.626875 C4.220625,15.189375 4.220625,16.126875 4.783125,16.689375 C5.345625,17.251875 6.283125,17.251875 6.845625,16.689375 L16.089375,7.501875 C17.214375,6.376875 19.051875,6.376875 20.176875,7.501875 C20.739375,8.064375 21.676875,8.064375 22.239375,7.501875 C22.764375,6.8925 22.764375,6.001875 22.201875,5.439375 L22.175625,5.439375 Z M19.081875,8.48625 C18.519375,7.92375 17.581875,7.92375 17.019375,8.48625 L7.831875,17.7225 C6.706875,18.8475 4.876875,18.8475 3.75,17.7225 C2.625,16.5975 2.625,14.7675 3.75,13.6425 L12.79875,4.59375 C11.67375,3.46875 9.845625,3.46875 8.720625,4.59375 L1.6875,11.58 C-0.5625,13.83 -0.5625,17.48625 1.6875,19.785 C3.9375,22.035 7.59375,22.035 9.8925,19.785 L19.08,10.5975 C19.6425,9.98625 19.6425,9.04875 19.08,8.48625 L19.081875,8.48625 Z" id="Shape"></path>
                        </g>
                    </g>
                </g>
            </g>
        </g>
    </g>
</svg>