<?xml version="1.0" encoding="UTF-8"?>
<svg width="53px" height="60px" viewBox="0 0 53 60" version="1.1" xmlns="http://www.w3.org/2000/svg" xmlns:xlink="http://www.w3.org/1999/xlink">
    <!-- Generator: Sketch 52.6 (67491) - http://www.bohemiancoding.com/sketch -->
    <title>mark</title>
    <desc>Created with Sketch.</desc>
    <g id="Symbols" stroke="none" stroke-width="1" fill="none" fill-rule="evenodd">
        <g id="footer" transform="translate(-867.000000, -390.000000)" fill="#08242A">
            <g id="mark">
                <g transform="translate(867.000000, 390.000000)">
                    <path d="M32.3928529,49.9776316 C29.7309706,51.6844737 26.4798529,50.2760526 26.4798529,47.1560526 L26.5211471,22.3555263 C27.6472059,23.4939474 36.9828529,33.8534211 36.9828529,40.8465789 C36.9828529,44.6723684 35.4089118,48.045 32.3928529,49.9776316 M26.4719118,12.7128947 C26.4719118,12.7128947 7.8705,28.2560526 7.8705,40.8465789 C7.8705,51.0607895 16.1992059,59.3407895 26.4719118,59.3407895 C36.7462059,59.3407895 45.0749118,51.0607895 45.0749118,40.8465789 C45.0749118,27.8628947 26.4719118,12.7128947 26.4719118,12.7128947" id="Fill-1"></path>
                    <polygon id="Fill-4" points="0 8.03257895 52.9454118 8.03257895 52.9454118 0.000473684211 0 0.000473684211"></polygon>
                </g>
            </g>
        </g>
    </g>
</svg>