<?xml version="1.0" encoding="UTF-8"?>
<svg width="322px" height="324px" viewBox="0 0 322 324" version="1.1" xmlns="http://www.w3.org/2000/svg" xmlns:xlink="http://www.w3.org/1999/xlink">
    <!-- Generator: Sketch 61.2 (89653) - https://sketch.com -->
    <title>liner</title>
    <desc>Created with Sketch.</desc>
    <g id="Pages" stroke="none" stroke-width="1" fill="none" fill-rule="evenodd" stroke-linecap="round" stroke-linejoin="round">
        <g id="Homepage" transform="translate(-1055.000000, -265.000000)" stroke="#08242A" stroke-width="3">
            <g id="masthead">
                <g id="feature" transform="translate(1041.000000, 232.000000)">
                    <path d="M293,64 C255.666667,36.6666667 228.333333,28.6666667 211,40 C160.996408,72.694656 239.87871,89.6968734 219,64 C193,32 -86,84 269.148438,157.351563 C281.068937,159.813596 305.428967,156.471379 315.667969,147.660156 C342,125 324.51772,109.205331 294.390625,112.253906 C280.102521,113.699726 265.711413,117.460731 253.789063,125.886719 C218.393127,150.9024 19,336 176,283 C333,230 140,132 48,178 C-44,224 81,340 156,354 C231,368 216,199 334,246" id="liner"></path>
                </g>
            </g>
        </g>
    </g>
</svg>