<svg xmlns="http://www.w3.org/2000/svg" width="292" height="104"><rect id="backgroundrect" width="100%" height="100%" x="0" y="0" fill="none" stroke="none"/>
	
<g class="currentLayer" style=""><title>Layer 1</title><path fill="#052d49" d="m284.36723539916994,104 v-104 h7.63089 v104 zM241.8795653991699,34.668548 h7.5832 v32.972132 h-7.95988 L229.63121539916995,46.443664999999996 v21.197015 h-7.63088 V34.668548 h7.9598700000000004 l11.91936,21.478701 zm-49.97743,-0.848157 c10.92657,0 17.42743,8.290508 17.42743,17.334274 c0,9.043669 -6.50086,17.334275 -17.42743,17.334275 c-10.97621,0 -17.47706,-8.290606 -17.47706,-17.334275 c0,-9.043766 6.50085,-17.334274 17.47706,-17.334274 zm9.65639,17.334274 c0,-5.41676 -3.67528,-10.456939 -9.65639,-10.456939 c-6.02976,0 -9.65638,5.040179 -9.65638,10.456939 c0,5.41676 3.62662,10.456843 9.65638,10.456843 c5.9811,0 9.65639,-5.040083 9.65639,-10.456843 zm-132.87959,-9.89202 v-6.594097 h22.56103 v6.594097 h-7.48985 v26.378035 h-7.63059 V41.262645000000006 zm80.87667,7.018272 h12.48195 v5.983334 h-12.48196 v7.25226 h12.48195 v6.124179 H141.9247153991699 V34.668548 h20.11283 v6.124175 H149.55559539916993 zM116.95984539916992,34.668548 c7.29995,0 12.01086,5.511757 12.01086,11.917515 c0,4.6161010000000005 -2.44987,8.713029 -6.54855,10.645278 l6.59624,10.409349 H120.16306539916991 l-5.84288,-9.138768 h-3.5799000000000003 v9.138768 h-7.62991 V34.668548 zm4.28556,11.917515 c0,-3.062087 -2.07319,-5.699998 -5.27641,-5.699998 h-5.22871 v11.398438 h5.22871 c3.20322,0 5.27641,-2.636353 5.27641,-5.69844 zM53.74683039916992,63.637099000000006 H42.01755739916992 l-1.272333,4.003591 H32.595459399169926 L44.37223039916992,34.668548 H51.39040539916992 L63.30791939916992,67.64069 H55.017411399169916 zM47.90424039916992,44.088992000000005 L43.85315539916992,57.65542000000001 h8.007173 zm-34.10363,-9.420444 c7.301511,0 12.012511,5.511757 12.012511,11.917515 c0,6.405757 -4.711,11.915859 -12.012511,11.915859 h-6.170018 v9.138768 H3.991699202288146e-7 V34.668548 zm4.33442,11.917515 c0,-3.062087 -2.073089,-5.699998 -5.276016,-5.699998 h-5.228422 v11.398438 h5.228422 c3.202927,0 5.276016,-2.636353 5.276016,-5.69844 z" id="svg_1" class=""/></g></svg>