<?xml version="1.0" encoding="UTF-8"?>
<svg width="347px" height="86px" viewBox="0 0 347 86" version="1.1" xmlns="http://www.w3.org/2000/svg" xmlns:xlink="http://www.w3.org/1999/xlink">
    <!-- Generator: Sketch 61.2 (89653) - https://sketch.com -->
    <title>sketch-logo-light</title>
    <desc>Created with Sketch.</desc>
    <defs>
        <polygon id="path-1" points="20.9032258 2.83147321 47.9032258 0 74.9032258 2.83147321 95.8064516 30.6662946 47.9032258 86 0 30.6662946"></polygon>
        <polygon id="path-3" points="20.9032258 2.83147321 47.9032258 0 74.9032258 2.83147321 95.8064516 30.6662946 47.9032258 86 0 30.6662946"></polygon>
    </defs>
    <g id="Page-1" stroke="none" stroke-width="1" fill="none" fill-rule="evenodd">
        <g id="sketch-logo-light">
            <path d="M122.364717,53.5641081 L122.299379,52.6844106 L121.423035,52.6844106 L115.983805,52.6844106 L115,52.6844106 L115.040286,53.6739061 C115.489124,64.6981396 122.872433,72 136.003194,72 C148.52676,72 157.042439,65.4502519 157.042439,55.5361217 C157.042439,50.1753144 155.194845,46.3816549 151.674183,43.7908403 C148.965975,41.7979009 145.727841,40.6745495 140.358262,39.5025749 C139.999491,39.4242691 139.625539,39.3441175 139.177417,39.2491954 C138.911317,39.1928296 137.956552,38.9916425 138.007222,39.0023357 C128.255702,36.9444259 125.162506,35.1567297 125.162506,29.8326996 C125.162506,24.3272602 129.635057,20.8212928 137.136367,20.8212928 C144.434562,20.8212928 149.046967,25.3082052 149.26176,32.3712908 L149.289783,33.2927757 L150.205628,33.2927757 L155.569314,33.2927757 L156.535668,33.2927757 L156.513373,32.3202749 C156.260977,21.3106241 148.922591,13.9011407 137.060822,13.9011407 C125.435269,13.9011407 117.759109,20.9429106 117.759109,30.0608365 C117.759109,35.4064876 119.604746,39.1291641 123.130959,41.6164046 C125.81725,43.5111999 128.92917,44.5156987 134.418728,45.6313886 C134.675822,45.68364 134.944058,45.7375786 135.263398,45.8013475 C135.461068,45.8408201 135.684318,45.885258 136.103294,45.9686348 C141.297345,47.0031212 143.589125,47.6416246 145.679886,48.8654507 C148.275357,50.3847087 149.563497,52.5548302 149.563497,55.9163498 C149.563497,61.7526723 144.688691,65.0798479 136.154284,65.0798479 C127.984046,65.0798479 122.913686,60.9552382 122.364717,53.5641081 Z M172.340274,12.9505703 L172.340274,12 L171.395963,12 L166.032277,12 L165.087967,12 L165.087967,12.9505703 L165.087967,69.9847909 L165.087967,70.9353612 L166.032277,70.9353612 L171.395963,70.9353612 L172.340274,70.9353612 L172.340274,69.9847909 L172.340274,59.8155667 L179.974279,52.3314262 L193.607236,70.5565842 L193.890573,70.9353612 L194.361602,70.9353612 L201.00955,70.9353612 L202.912088,70.9353612 L201.761665,69.4100019 L185.112345,47.3344717 L200.466972,31.9513159 L202.08828,30.3269962 L199.800832,30.3269962 L192.62407,30.3269962 L192.23096,30.3269962 L191.953978,30.6077995 L172.340274,50.4920411 L172.340274,12.9505703 Z M240.104017,53.1406844 L240.991151,53.1406844 L241.046489,52.249409 C241.056222,52.092651 241.070656,51.8335333 241.08508,51.5213511 C241.096498,51.2742373 241.105915,51.0334369 241.112646,50.8057715 C241.119941,50.559057 241.123873,50.3346325 241.123873,50.1368821 C241.123873,38.2055978 233.27323,29.4144487 221.67107,29.4144487 C210.090707,29.4144487 201.840543,38.7723655 201.840543,50.5931559 C201.840543,62.756956 209.716761,71.8479087 221.746615,71.8479087 C230.84274,71.8479087 237.869928,66.4150767 240.401807,58.1744009 L240.780156,56.9429658 L239.499658,56.9429658 L233.909338,56.9429658 L233.242418,56.9429658 L233.019393,57.575656 C231.429469,62.0860541 227.12488,65.0798479 221.82216,65.0798479 C214.889657,65.0798479 210.057017,60.2874242 209.186439,53.1406844 L240.104017,53.1406844 Z M209.40619,46.8288973 C210.630308,40.4298729 215.305534,36.1825095 221.67107,36.1825095 C228.23194,36.1825095 232.759734,40.2904952 233.750111,46.8288973 L209.40619,46.8288973 Z M264.920505,36.7908745 L265.864816,36.7908745 L265.864816,35.8403042 L265.864816,31.2775665 L265.864816,30.3269962 L264.920505,30.3269962 L257.026067,30.3269962 L257.026067,20.2509506 L257.026067,19.3003802 L256.081756,19.3003802 L250.71807,19.3003802 L249.77376,19.3003802 L249.77376,20.2509506 L249.77376,30.3269962 L243.390219,30.3269962 L242.445908,30.3269962 L242.445908,31.2775665 L242.445908,35.8403042 L242.445908,36.7908745 L243.390219,36.7908745 L249.77376,36.7908745 L249.77376,59.5665399 C249.77376,67.0380159 253.623508,71.0874525 260.689992,71.0874525 C261.923386,71.0874525 262.986645,71.0131256 263.879467,70.8883006 C264.431149,70.8111702 264.81212,70.7312752 265.022154,70.6725455 L265.713726,70.4791689 L265.713726,69.756654 L265.713726,64.8897338 L265.713726,63.7103156 L264.568816,63.960859 C264.523054,63.9708731 264.43035,63.9898622 264.297932,64.0148553 C264.073558,64.0572043 263.823634,64.0997009 263.555509,64.1393925 C262.86886,64.2410396 262.187812,64.3061881 261.560803,64.3176222 C261.496307,64.3187984 261.432658,64.3193916 261.369896,64.3193916 C258.274318,64.3193916 257.026067,62.8557465 257.026067,59.1863118 L257.026067,36.7908745 L264.920505,36.7908745 Z M287.470647,71.8479087 C297.50895,71.8479087 304.596683,65.4535878 306.376649,56.4051787 L306.599964,55.269962 L305.450325,55.269962 L300.011094,55.269962 L299.285009,55.269962 L299.098477,55.9763297 C297.573643,61.7506323 293.434908,65.0798479 287.470647,65.0798479 C280.027434,65.0798479 274.892427,59.1694253 274.892427,50.6692015 C274.892427,42.1032245 280.018515,36.1825095 287.470647,36.1825095 C293.434908,36.1825095 297.573643,39.5117251 299.098477,45.2860277 L299.285009,45.9923954 L300.011094,45.9923954 L305.450325,45.9923954 L306.599964,45.9923954 L306.376649,44.8571787 C304.596683,35.8087696 297.50895,29.4144487 287.470647,29.4144487 C275.809786,29.4144487 267.564575,38.8385033 267.564575,50.6692015 C267.564575,62.4348298 275.821139,71.8479087 287.470647,71.8479087 Z M319.954939,12.9505703 L319.954939,12 L319.010628,12 L313.646942,12 L312.702632,12 L312.702632,12.9505703 L312.702632,69.9847909 L312.702632,70.9353612 L313.646942,70.9353612 L319.010628,70.9353612 L319.954939,70.9353612 L319.954939,69.9847909 L319.954939,47.095057 C319.954939,40.1209961 324.171925,36.0304183 330.568992,36.0304183 C336.678817,36.0304183 339.747693,39.590874 339.747693,46.3346008 L339.747693,69.9847909 L339.747693,70.9353612 L340.692004,70.9353612 L346.055689,70.9353612 L347,70.9353612 L347,69.9847909 L347,45.269962 C347,35.7440174 341.140319,29.4144487 331.47553,29.4144487 C326.503312,29.4144487 322.506612,31.2481905 319.954939,33.8800758 L319.954939,12.9505703 Z" id="Wordmark" fill="#000000" fill-rule="nonzero"></path>
            <g id="Logo">
                <g id="Icon">
                    <g id="Mask" fill="#FDB300" fill-rule="nonzero">
                        <polygon id="path-1" points="20.9032258 2.83147321 47.9032258 0 74.9032258 2.83147321 95.8064516 30.6662946 47.9032258 86 0 30.6662946"></polygon>
                    </g>
                    <g id="Base-Clipped">
                        <mask id="mask-2" fill="white">
                            <use xlink:href="#path-1"></use>
                        </mask>
                        <g id="path-1"></g>
                        <g id="Base" mask="url(#mask-2)">
                            <g transform="translate(0.000000, 30.000000)" id="Group">
                                <g transform="translate(0.000000, 0.666295)">
                                    <polygon id="Path-54-Copy" fill="#EA6C00" fill-rule="nonzero" points="19.4032258 0 47.9032258 55.3337054 0 8.18392972e-15"></polygon>
                                    <polygon id="Path-54-Copy-3" fill="#EA6C00" fill-rule="nonzero" transform="translate(71.854839, 27.666853) scale(-1, 1) translate(-71.854839, -27.666853) " points="67.3064522 0 95.8064522 55.3337054 47.9032264 8.18392972e-15"></polygon>
                                    <polygon id="Path-65" fill="#FDAD00" fill-rule="nonzero" points="19.4032258 0 76.4032258 0 47.9032258 55.3337054"></polygon>
                                </g>
                            </g>
                        </g>
                    </g>
                    <g id="Crown-Clipped">
                        <mask id="mask-4" fill="white">
                            <use xlink:href="#path-3"></use>
                        </mask>
                        <g id="path-1"></g>
                        <g id="Crown" mask="url(#mask-4)" fill-rule="nonzero">
                            <polygon id="Path-52" fill="#FDD231" points="47.9032258 0 20.9032258 2.83147321 19.4032258 30.6662946"></polygon>
                            <polygon id="Path-52-Copy-2" fill="#FDD231" transform="translate(62.153226, 15.333147) scale(-1, 1) translate(-62.153226, -15.333147) " points="76.4032262 0 49.4032262 2.83147321 47.9032262 30.6662946"></polygon>
                            <polygon id="Path-52-Copy-3" fill="#FDAD00" transform="translate(85.354839, 16.748884) scale(-1, 1) translate(-85.354839, -16.748884) " points="74.9032264 30.6662946 95.8064522 2.83147321 94.3064522 30.6662946"></polygon>
                            <polygon id="Path-52-Copy-9" fill="#FDAD00" points="0 30.6662946 20.9032258 2.83147321 19.4032258 30.6662946"></polygon>
                            <polygon id="Path-66" fill="#FEEEB7" points="47.9032258 0 19.4032258 30.6662946 76.4032258 30.6662946"></polygon>
                        </g>
                    </g>
                </g>
            </g>
        </g>
    </g>
</svg>