<?xml version="1.0" encoding="UTF-8"?>
<svg width="686px" height="245px" viewBox="0 0 686 245" version="1.1" xmlns="http://www.w3.org/2000/svg" xmlns:xlink="http://www.w3.org/1999/xlink">
    <!-- Generator: Sketch 61.2 (89653) - https://sketch.com -->
    <title>Group</title>
    <desc>Created with Sketch.</desc>
    <defs>
        <polygon id="path-1" points="332.096693 0.263 0.217 0.263 0.217 244.998 332.096693 244.998"></polygon>
        <polygon id="path-3" points="332.096693 0.263 0.217 0.263 0.217 244.998 332.096693 244.998"></polygon>
    </defs>
    <g id="Page-1" stroke="none" stroke-width="1" fill="none" fill-rule="evenodd">
        <g id="Group" transform="translate(0.407000, 0.000000)">
            <g id="Group-4" transform="translate(352.593000, 0.000000)">
                <g id="Fill-1-Clipped">
                    <mask id="mask-2" fill="white">
                        <use xlink:href="#path-1"></use>
                    </mask>
                    <g id="path-1"></g>
                    <path d="M105.378,205.27 C103.581,207.816 102.677,211.135 102.677,215.45 C102.677,224.837 106.1,229.53 112.772,229.53 C115.842,229.53 118.367,228.17 120.173,225.82 C121.974,223.474 122.873,219.94 122.873,215.45 C122.873,206.246 119.45,201.75 112.772,201.75 C109.711,201.75 107.183,202.92 105.378,205.27 Z M86.804,198.033 L82.648,205.27 C80.305,202.92 77.239,201.934 73.268,201.934 C69.48,201.934 66.596,203.119 64.431,205.656 C62.269,208.203 61.182,211.528 61.182,216.027 C61.182,224.837 65.33,229.344 73.812,229.344 C77.604,229.344 80.848,227.972 83.558,225.628 L87.162,233.444 C84.276,235.208 81.752,236.396 79.587,236.778 C77.604,237.368 74.887,237.551 72.001,237.551 C65.517,237.551 60.286,235.606 56.496,231.886 C52.708,227.972 50.901,222.68 50.901,216.027 C50.901,209.383 52.89,203.901 57.033,199.98 C61.182,195.868 66.958,193.917 73.991,193.917 C79.047,193.917 83.193,195.285 86.804,198.033 Z M127.748,199.791 C131.353,203.316 133.161,208.794 133.161,215.45 C133.161,222.29 131.353,227.581 127.571,231.494 C123.959,235.606 119.084,237.551 112.772,237.551 C106.283,237.551 101.229,235.606 97.8,231.494 C94.195,227.581 92.391,222.102 92.391,215.45 C92.391,208.986 94.195,203.901 97.981,199.98 C101.767,195.868 106.639,193.917 112.772,193.917 C119.265,193.917 124.136,195.868 127.748,199.791 Z M178.439,195.091 C180.597,194.301 182.765,193.917 185.109,193.917 C189.803,193.917 193.405,195.285 196.111,197.832 C198.633,200.577 200.083,204.092 200.083,208.794 L200.083,236.778 L190.157,236.778 L190.157,210.159 C190.157,204.685 187.634,201.934 182.584,201.934 C181.144,201.934 179.699,202.329 178.252,203.316 C176.988,204.092 176.091,205.084 175.365,206.246 L175.365,236.778 L165.63,236.778 L165.63,208.794 C165.63,206.638 164.909,204.879 163.64,203.701 C162.386,202.527 160.578,201.934 158.231,201.934 C156.964,201.934 155.522,202.329 154.081,203.316 C152.644,204.288 151.557,205.27 150.835,206.246 L150.835,236.778 L141.097,236.778 L141.097,194.701 L147.775,194.701 L149.935,198.423 C152.644,195.285 156.071,193.917 160.578,193.917 C166.161,193.917 170.32,195.491 173.206,198.423 C174.468,197.048 176.091,195.868 178.439,195.091 Z M12.841,220.736 C12.841,214.079 17.71,208.794 23.662,208.794 C29.439,208.794 34.312,214.079 34.312,220.736 C34.312,227.182 29.439,232.471 23.662,232.471 C17.71,232.471 12.841,227.182 12.841,220.736 Z M0.217,196.064 L0.217,235.801 C0.217,240.891 4.182,244.998 8.875,244.998 L213.252,244.998 C217.939,244.998 221.91,240.891 221.91,235.801 L221.91,196.064 C221.91,190.986 217.939,186.673 213.252,186.673 L8.875,186.673 C4.182,186.673 0.217,190.986 0.217,196.064 L0.217,196.064 Z" id="Fill-1" fill="#0076BD" fill-rule="nonzero" mask="url(#mask-2)"></path>
                </g>
                <g id="Fill-3-Clipped">
                    <mask id="mask-4" fill="white">
                        <use xlink:href="#path-3"></use>
                    </mask>
                    <g id="path-1"></g>
                    <path d="M309.966,143.818 C308.863,147.232 307.765,150.651 306.443,153.988 C306.3,154.352 304.944,157.968 304.739,157.924 C304.628,157.902 304.518,157.875 304.408,157.852 C302.66,157.48 300.909,157.108 299.161,156.736 C292.202,155.252 285.247,153.769 278.289,152.287 C272.124,150.972 265.957,149.659 259.794,148.344 C259.63,144.991 259.642,141.632 259.49,138.279 C259.334,134.858 259.823,131.46 259.783,128.047 C270.683,130.533 281.586,133.019 292.489,135.504 C298.728,136.927 304.966,138.348 311.206,139.77 C310.772,141.116 310.362,142.461 309.966,143.818 Z M262.269,102.813 C263.761,95.536 264.917,88.191 266.66,80.967 C267.532,77.341 268.617,73.788 269.768,70.243 C270.028,69.443 272.549,61.271 272.811,61.3277032 C277.865,62.471 282.917,63.612 287.975,64.753 C294.251,66.171 300.531,67.589 306.809,69.006 L261.677,107.149 C261.869,105.702 262.066,104.257 262.269,102.813 Z M281.09,42.299 C284.464,36.509 287.804,30.782 292.664,26.077 C296.423,22.44 302.231,18.608 307.231,22.304 C311.513,25.467 313.842,31.296 315.51,36.142 C317.721,42.563 318.998,49.611 319.596,56.368 C306.011,53.114 292.36,50.131 278.743,47.019 C279.527,45.447 280.308,43.874 281.09,42.299 Z M273.753,114.793 L320.522,72.69 C320.609,81.267 320.341,89.862 319.382,98.389 C318.417,106.969 316.871,115.513 315.104,123.962 C303.707,121.435 292.31,118.909 280.912,116.381 C278.526,115.852 276.139,115.324 273.753,114.793 Z M307.546,0.712 C297.233,-1.48 288.446,4.66 282.302,12.391 C275.23,21.292 270.538,32.134 266.72,42.752 C261.662,56.831 258.103,71.508 255.333,86.196 C252.488,101.305 250.717,116.624 250.213,131.995 C249.964,139.582 249.972,147.201 250.417,154.781 C250.637,158.529 250.981,162.271 251.519,165.989 C251.777,167.767 252.08,169.539 252.432,171.301 C252.609,172.18 252.799,173.058 253,173.932 C253.196,174.129 254.019,173.852 254.239,173.807 C260.805,172.405 267.921,172.07 274.614,172.528 C281.828,173.02 288.492,175.208 294.753,178.793 C296.265,179.658 297.748,180.581 299.187,181.561 C299.932,182.069 300.666,182.589 301.387,183.126 C302.03,183.606 302.561,184.251 303.287,184.613 C305.183,181.615 306.874,178.492 308.411,175.296 C311.496,168.878 313.958,162.184 316.218,155.441 C320.989,141.22 324.648,126.66 327.205,111.883 C329.806,96.86 331.474,81.638 331.964,66.396 C332.38,53.457 331.939,40.215 328.882,27.578 C326.119,16.139 320.207,3.408 307.546,0.712 L307.546,0.712 Z" id="Fill-3" fill="#0076BD" fill-rule="nonzero" mask="url(#mask-4)"></path>
                </g>
            </g>
            <path d="M106.603,173.871 L14.43,173.871 C10.457,173.871 7.028,172.499 4.145,169.764 C1.439,167.021 0,163.894 0,160.369 C0,156.449 1.622,151.37 5.049,144.909 L71.069,17.892 L36.437,17.892 C27.599,17.892 21.46,19.453 18.219,22.393 C14.971,25.335 13.167,31.19 12.987,40.398 L1.985,40.398 L1.985,0.668 L84.599,0.668 C97.048,0.668 103.356,5.76 103.356,15.743 C103.356,18.673 102.461,22.191 100.471,25.915 L32.284,156.845 L106.603,156.845 L106.603,173.871" id="Fill-5" fill="#000000" fill-rule="nonzero"></path>
            <path d="M167.037,144.71 L167.037,120.834 C148.09,122.002 138.529,129.058 138.529,142.361 C138.529,152.926 142.142,158.41 149.357,158.41 C157.112,158.41 162.881,153.716 167.037,144.71 Z M193.547,159.781 L180.921,159.781 C175.516,159.781 171.004,161.143 167.573,164.085 C160.722,169.374 157.293,172.306 156.932,172.499 C152.604,175.237 147.551,176.607 141.958,176.607 C132.943,176.607 125.366,173.675 119.235,167.803 C113.098,161.937 110.033,154.886 110.033,146.664 C110.033,122.594 129.153,109.481 167.037,107.531 L167.037,96.569 C167.037,86.005 166.31,78.372 164.509,73.666 C162.881,68.967 159.822,66.625 155.672,66.625 C151.524,66.625 148.633,68.588 147.374,72.885 C147.194,73.082 146.47,77.584 145.211,86.005 C143.941,94.409 138.895,98.916 129.693,98.916 L115.085,83.849 C115.445,74.649 119.235,67.216 126.447,61.728 C133.848,56.056 143.587,53.322 155.851,53.322 C169.561,53.322 179.299,56.835 185.072,63.494 C190.663,70.346 193.547,81.889 193.547,97.937 L193.547,159.781 L193.547,159.781 Z" id="Fill-6" fill="#000000" fill-rule="nonzero"></path>
            <path d="M234.859,124.163 C234.859,148.039 241.355,159.781 254.16,159.781 C266.605,159.781 272.742,144.71 272.742,114.761 C272.742,86.005 266.792,71.516 254.697,71.516 C246.582,71.516 239.91,79.542 234.859,95.782 L234.859,124.163 Z M208.885,75.033 C209.788,75.033 211.048,75.033 212.31,75.033 C213.933,75.239 215.017,75.239 215.563,75.239 C222.954,75.239 227.825,74.256 230.537,72.296 C235.041,68.19 239.729,64.085 244.599,59.772 C249.831,55.663 255.787,53.707 262.456,53.707 C274.545,53.707 284.103,58.995 291.138,69.948 C298.171,80.911 301.784,95.979 301.784,115.35 C301.784,135.322 297.991,150.779 290.599,161.742 C283.203,172.499 272.742,177.979 259.394,177.979 C249.291,177.979 241.172,173.871 234.859,165.85 L234.859,212.421 C234.859,216.535 233.598,219.871 231.252,222.604 C228.731,225.345 225.662,226.714 222.056,226.714 C218.263,226.714 215.197,225.345 212.673,222.406 C210.147,219.664 208.885,216.344 208.885,212.421 L208.885,75.033 L208.885,75.033 Z" id="Fill-7" fill="#000000" fill-rule="nonzero"></path>
            <path d="M338.579,124.163 C338.579,148.039 344.898,159.781 357.883,159.781 C370.324,159.781 376.457,144.71 376.457,114.761 C376.457,86.005 370.324,71.516 358.246,71.516 C350.13,71.516 343.635,79.542 338.579,95.782 L338.579,124.163 Z M312.606,75.033 C313.509,75.033 314.588,75.033 316.032,75.033 C317.478,75.239 318.558,75.239 319.283,75.239 C326.676,75.239 331.546,74.256 334.252,72.296 C338.758,68.19 343.454,64.085 348.138,59.772 C353.55,55.663 359.503,53.707 366.176,53.707 C378.085,53.707 387.648,58.995 394.68,69.948 C401.718,80.911 405.139,95.979 405.139,115.35 C405.139,135.322 401.529,150.779 394.139,161.742 C386.563,172.499 376.457,177.979 363.114,177.979 C353.01,177.979 344.898,173.871 338.579,165.85 L338.579,212.421 C338.579,216.535 337.322,219.871 334.791,222.604 C332.447,225.345 329.383,226.714 325.596,226.714 C321.987,226.714 318.921,225.345 316.394,222.406 C313.868,219.664 312.606,216.344 312.606,212.421 L312.606,75.033 L312.606,75.033 Z" id="Fill-8" fill="#000000" fill-rule="nonzero"></path>
            <path d="M476.574,125.927 C476.574,107.716 476.036,95.58 475.134,90.11 C472.788,74.649 467.018,66.822 458.18,66.822 C451.32,66.822 446.451,70.729 443.567,78.754 C440.679,86.584 439.236,98.916 439.236,115.937 C439.236,132.372 440.679,144.122 443.21,151.37 C446.093,159.2 450.956,163.111 457.998,163.111 C470.266,163.111 476.574,150.779 476.574,125.927 Z M502.552,115.937 C502.552,156.256 487.579,176.607 457.998,176.607 C428.232,176.607 413.262,156.256 413.262,115.937 C413.262,74.256 428.232,53.322 457.998,53.322 C471.697,53.322 482.527,58.798 490.643,69.948 C498.581,80.911 502.552,96.373 502.552,115.937 L502.552,115.937 Z" id="Fill-9" fill="#000000" fill-rule="nonzero"></path>
            <path d="M565.509,83.849 C565.509,73.475 559.908,68.389 548.726,68.389 C539.167,68.389 534.482,72.296 534.482,80.518 C534.482,85.608 539.53,91.279 549.631,97.937 C554.684,101.07 560.637,105.178 567.496,109.869 C576.694,118.686 581.382,129.253 581.382,141.189 C581.382,151.556 577.948,160.176 571.097,166.633 C564.242,173.088 555.402,176.213 544.399,176.213 C534.655,176.213 526.719,174.46 520.598,170.739 C514.455,167.021 511.206,162.323 511.206,157.043 C511.206,153.716 513.554,152.148 518.245,152.148 C519.505,152.148 520.769,152.148 521.67,152.343 C528.885,157.634 535.557,160.369 541.689,160.369 C551.975,160.369 557.211,156.256 557.211,148.039 C557.211,143.531 555.223,139.622 551.257,135.897 C549.631,134.151 544.399,130.424 535.557,124.356 C526.719,118.29 520.411,112.81 516.799,107.921 C512.475,102.24 510.307,95.58 510.307,87.953 C510.307,76.994 513.733,68.588 520.769,62.506 C527.626,56.452 537.364,53.322 550.176,53.322 C555.941,53.322 564.242,54.876 574.883,58.02 L574.883,83.849 L565.509,83.849" id="Fill-10" fill="#000000" fill-rule="nonzero"></path>
            <path d="M650.253,220.118 C648.199,235.373 634.493,246.122 619.625,244.124 C604.769,242.127 594.4,228.132 596.456,212.884 C598.511,197.633 612.207,186.894 627.061,188.894 C641.921,190.899 652.298,204.869 650.253,220.118" id="Fill-27" fill="#0076BD" fill-rule="nonzero"></path>
        </g>
    </g>
</svg>